<svg xmlns="http://www.w3.org/2000/svg" viewBox="0 0 1000 656" width="1000" height="656" font-family="system-ui,-apple-system,Segoe UI,Roboto,sans-serif">
<style>
.bg{fill:#f4f3f0}
.bl{fill:#e9e7e2}
.c{fill:#c3c4c1}
.n{fill:#c6bba4}
.f{fill:#b4483c;stroke:#6f2820;stroke-width:1.5}
.pn{font-size:11px;font-weight:600;fill:#4a4844}
.ti{font-size:15px;font-weight:600;fill:#1a1a1a}
.lg{font-size:11px;fill:#6b6b6b}
@media(prefers-color-scheme:dark){.bg{fill:#16171a}.bl{fill:#212329}.c{fill:#42454b}.n{fill:#4d4738}.f{fill:#d9615a;stroke:#f2b3ae}.pn{fill:#a9a7a2}.ti{fill:#e9e8e6}.lg{fill:#9a9a97}}
</style>
<rect class="bg" width="1000" height="656"/>
<text class="ti" x="2" y="18">TestBed</text>
<text class="lg" x="998" y="18" text-anchor="end">160 types in 3 projects · one cell each, sized by lines</text>
<rect class="bl" x="2" y="32" width="943.312961011591" height="596" rx="2"/>
<text class="pn" x="6" y="44">Core</text>
<rect class="bl" x="949.312961011591" y="32" width="48.68703898840898" height="337.9999999999992" rx="2"/>
<rect class="bl" x="949.312961011591" y="373.9999999999992" width="48.687038988408965" height="253.99999999999943" rx="2"/>
<path class="c" d="M4 546h131v78h-131zM136 48h102v101h-102zM136 348h102v92h-102zM136 442h102v92h-102zM136 535h102v89h-102zM239 151h86v98h-86zM239 347h86v91h-86zM327 225h90v81h-90zM419 48h86v77h-86zM507 48h75v77h-75zM660 48h71v77h-71zM732 48h71v77h-71zM805 48h67v77h-67zM419 126h70v70h-70zM419 198h70v70h-70zM419 270h70v70h-70zM419 342h70v70h-70zM419 414h70v70h-70zM419 486h70v70h-70zM561 126h65v67h-65zM628 126h65v67h-65zM694 126h65v67h-65zM823 126h61v67h-61zM885 126h56v67h-56zM490 195h57v60h-57zM490 256h57v60h-57zM490 318h57v60h-57zM490 379h57v60h-57zM490 441h57v60h-57zM490 564h57v60h-57zM549 195h65v53h-65zM616 195h65v53h-65zM682 195h65v53h-65zM749 195h65v53h-65zM815 195h65v53h-65zM882 195h60v53h-60zM549 249h51v56h-51zM549 307h51v56h-51zM549 365h51v56h-51zM549 423h51v51h-51zM549 579h51v45h-51zM601 584h49v40h-49zM749 298h47v42h-47zM797 298h47v42h-47zM846 298h47v42h-47zM894 298h47v42h-47zM652 342h45v44h-45zM652 387h45v44h-45zM652 432h45v37h-45zM652 471h45v37h-45zM652 510h45v37h-45zM652 548h45v37h-45zM652 587h45v37h-45zM699 342h39v43h-39zM740 342h39v43h-39zM861 342h39v43h-39zM699 476h39v36h-39zM699 514h39v36h-39zM699 551h39v36h-39zM699 588h39v36h-39zM739 387h39v36h-39zM821 387h39v36h-39zM902 387h39v36h-39zM739 424h36v39h-36zM739 464h36v39h-36zM739 504h36v39h-36zM739 545h36v39h-36zM739 585h36v39h-36zM777 424h36v38h-36zM814 424h36v38h-36zM852 424h29v38h-29zM882 424h29v38h-29zM913 424h29v38h-29zM777 464h36v31h-36zM777 496h36v31h-36zM777 528h36v31h-36zM777 561h36v31h-36zM777 593h36v31h-36zM814 464h31v36h-31zM846 464h31v36h-31zM878 464h31v36h-31zM911 464h31v36h-31zM814 501h37v30h-37zM814 532h37v30h-37zM814 563h37v30h-37zM814 594h37v30h-37zM853 501h28v39h-28zM883 501h28v39h-28zM913 501h28v39h-28zM853 542h24v46h-24zM878 542h15v17h-15zM894 542h15v17h-15zM910 542h15v17h-15zM927 542h15v17h-15zM878 560h15v17h-15zM894 560h15v17h-15zM910 560h15v17h-15zM927 560h15v17h-15zM878 579h18v14h-18zM878 594h18v14h-18zM878 610h18v14h-18zM898 579h14v18h-14zM913 579h14v18h-14zM928 579h14v18h-14zM898 599h21v12h-21zM898 612h21v12h-21zM920 599h21v12h-21zM920 612h21v12h-21z"/>
<path class="n" d="M4 48h131v186h-131zM4 381h131v81h-131zM136 252h102v95h-102zM239 48h86v102h-86zM239 250h86v95h-86zM327 48h90v87h-90zM327 136h90v87h-90zM327 389h90v81h-90zM327 471h90v77h-90zM327 550h90v74h-90zM583 48h75v77h-75zM419 558h70v66h-70zM490 126h69v67h-69zM761 126h61v67h-61zM490 502h57v60h-57zM549 475h51v51h-51zM549 527h51v51h-51zM601 249h47v48h-47zM650 249h47v48h-47zM699 249h47v48h-47zM748 249h47v48h-47zM796 249h47v48h-47zM845 249h47v48h-47zM894 249h47v48h-47zM601 298h49v46h-49zM601 346h49v46h-49zM601 394h49v46h-49zM601 441h49v46h-49zM601 489h49v46h-49zM601 536h49v46h-49zM652 298h47v42h-47zM700 298h47v42h-47zM821 342h39v43h-39zM902 342h39v43h-39zM699 387h39v43h-39zM699 431h39v43h-39zM780 387h39v36h-39zM853 590h24v34h-24zM950 33h45v240h-45zM950 274h45v52h-45zM950 327h45v40h-45zM950 374h45v192h-45zM950 568h45v57h-45z"/>
<path class="f" d="M4 235h131v145h-131zM4 463h131v81h-131zM136 150h102v101h-102zM239 440h86v91h-86zM239 533h86v91h-86zM327 307h90v81h-90zM874 48h67v77h-67zM780 342h39v43h-39zM861 387h39v36h-39z"/>
<rect class="f" x="2" y="638" width="10" height="10"/>
<text class="lg" x="17" y="647">the findings lead with this</text>
<rect class="n" x="188" y="638" width="10" height="10"/>
<text class="lg" x="203" y="647">a finding names it</text>
<rect class="c" x="320" y="638" width="10" height="10"/>
<text class="lg" x="335" y="647">no finding names it</text>
<text class="lg" x="998" y="647" text-anchor="end">Bearing · github.com/ironmarten/bearing</text>
</svg>
